PathFileType  4	(X/Y/Z) C:\Users\antoi\Documents\MyRepositories\mobilecap\ResultsAnalysis
DataRate	CameraRate	NumFrames	NumMarkers	Units	OrigDataRate	OrigDataStartFrame	OrigNumFrames
100.0	100.0	4	51	mm	100.0	118	157
Frame#	Time	r_knee			r_shank_antsup			r_ankle			r_calc			r_5meta			r_toe			L_knee			L_shank_antsup			L_ankle			L_calc			L_5meta			L_toe			r_sh2			r_sh3			r_sh4			L_sh2			L_sh3			r_thigh1			r_thigh2			r_thigh3			r_thigh4			r_thigh5			L_thigh1			L_thigh2			L_thigh3			L_thigh4			r.ASIS			r.PSIS			L.ASIS			L.PSIS			C7			R_Shoulder			L_Shoulder			R_Sternum			L_Sternum			R_humerus			R_elbow_med			R_elbow_lat			R_forearm			R_wrist_radius			R_wrist_ulna			L_humerus			L_elbow_med			L_elbow_lat			L_forearm			L_wrist_radius			L_wrist_ulna			R_HJC			L_HJC			R_HJC_reg			L_HJC_reg			
		X1	Y1	Z1	X2	Y2	Z2	X3	Y3	Z3	X4	Y4	Z4	X5	Y5	Z5	X6	Y6	Z6	X7	Y7	Z7	X8	Y8	Z8	X9	Y9	Z9	X10	Y10	Z10	X11	Y11	Z11	X12	Y12	Z12	X13	Y13	Z13	X14	Y14	Z14	X15	Y15	Z15	X16	Y16	Z16	X17	Y17	Z17	X18	Y18	Z18	X19	Y19	Z19	X20	Y20	Z20	X21	Y21	Z21	X22	Y22	Z22	X23	Y23	Z23	X24	Y24	Z24	X25	Y25	Z25	X26	Y26	Z26	X27	Y27	Z27	X28	Y28	Z28	X29	Y29	Z29	X30	Y30	Z30	X31	Y31	Z31	X32	Y32	Z32	X33	Y33	Z33	X34	Y34	Z34	X35	Y35	Z35	X36	Y36	Z36	X37	Y37	Z37	X38	Y38	Z38	X39	Y39	Z39	X40	Y40	Z40	X41	Y41	Z41	X42	Y42	Z42	X43	Y43	Z43	X44	Y44	Z44	X45	Y45	Z45	X46	Y46	Z46	X47	Y47	Z47	X48	Y48	Z48	X49	Y49	Z49	X50	Y50	Z50	X51	Y51	Z51	

118	1.17000000	1216.49027	502.65039	-80.91190	1266.75893	477.10009	-86.62860	1335.59477	114.37324	-110.64746	1301.85873	61.79341	-162.65419	1489.46056	113.71457	-59.03998	1505.81302	155.21895	-112.72261	959.81350	485.20087	-394.35190	959.59395	394.70007	-401.73337	823.75063	100.01402	-331.63996	759.07283	69.60956	-276.57881	939.26186	37.80945	-352.06914	985.38377	58.27635	-300.84120	1305.83537	369.75825	-96.54981	1201.90030	448.85117	-52.42748	1240.12625	339.45354	-49.84173	876.13428	429.90777	-407.53971	838.34112	314.60448	-395.14185	1186.82303	796.43894	-145.39154	1233.20593	695.97576	-132.55913	1224.40327	674.26137	-68.19694	1126.75560	778.51132	-52.50840	1173.40339	674.46785	-41.31859	1081.99084	790.61207	-423.35748	1052.60707	653.63863	-422.70557	971.06322	813.61821	-417.60594	941.62421	681.01895	-396.41920	1145.73643	946.84194	-127.85966	954.64225	984.72435	-195.41728	1145.28928	929.01609	-365.25866	951.77917	988.63894	-294.36255	1037.28233	1450.82875	-301.46818	1088.59848	1419.28344	-133.07975	1100.75173	1373.24515	-453.89338	1134.64105	1344.48914	-270.85348	1136.68033	1337.18648	-309.27696	1064.49669	1191.75472	-25.71812	998.69067	1105.24300	-45.73492	1030.74649	1108.85287	6.80521	1090.20944	978.08982	28.33931	1127.63982	879.15092	18.92980	1094.95624	876.73825	50.29255	1121.11462	1140.01996	-520.90723	1079.85874	1035.10382	-479.46225	1107.15773	1038.76315	-530.53715	1196.48366	925.57638	-538.89066	1255.28776	836.67280	-512.41033	1223.01582	819.06766	-535.92292	1067.55776	866.75321	-156.76859	1051.17621	867.53265	-346.73193	1076.41507	864.10321	-161.51597	1071.87523	870.31163	-318.45109	
119	1.18000000	1226.76820	500.46599	-81.99349	1277.21440	476.18874	-87.50431	1357.00771	115.77174	-112.80337	1325.35090	62.74406	-165.52181	1510.94967	118.86629	-60.69963	1526.31108	161.42774	-114.10150	965.57680	484.36211	-395.49978	963.95715	393.97539	-402.66517	824.41256	100.83877	-332.48250	759.41370	70.90287	-277.34384	939.34456	37.60198	-352.26737	985.30639	57.84479	-300.97566	1319.46871	369.98801	-97.64884	1212.98157	445.97854	-53.66657	1254.28076	337.62426	-51.56339	880.96854	430.17656	-408.65785	841.73447	315.30723	-396.28299	1197.67905	793.72418	-146.78154	1243.38866	692.88541	-134.00094	1235.15930	671.56174	-69.49465	1138.24606	776.54080	-53.23416	1184.45627	672.16807	-42.03541	1090.96194	788.58002	-424.33142	1060.07719	651.92128	-423.53731	980.55551	812.93038	-418.94883	949.41454	680.52578	-397.27313	1157.32418	944.49712	-128.93176	965.96454	982.86809	-195.59189	1155.52952	927.02984	-366.53332	962.61878	987.01406	-294.56984	1047.90020	1449.31892	-298.23767	1098.64759	1416.19355	-130.01156	1111.59592	1373.18304	-451.25952	1145.22445	1342.69330	-268.33113	1147.35730	1335.76091	-306.87193	1073.33379	1187.96920	-24.28534	1007.81682	1101.66381	-45.58536	1039.15754	1104.98857	7.41148	1098.19040	973.94705	28.87738	1135.52059	874.96890	19.31081	1102.56787	872.48622	50.34220	1132.15351	1140.49536	-520.08190	1090.85337	1035.25665	-479.51529	1118.40960	1039.27155	-530.44602	1207.98942	926.32796	-539.20804	1266.89448	837.37077	-513.08113	1234.80631	819.87415	-536.81213	1078.78255	864.61936	-157.69210	1061.44499	865.73422	-347.56831	1087.62346	861.80725	-162.45858	1082.31765	868.38370	-319.47413	
120	1.19000000	1237.58053	498.38191	-83.19570	1288.08760	475.10991	-88.54939	1376.24514	116.71613	-115.13137	1346.26542	63.22901	-168.56215	1530.09222	122.58685	-62.35587	1544.64967	165.90846	-115.43644	971.71616	483.41273	-396.54906	968.66160	393.15085	-403.51967	825.14865	101.73445	-333.33309	759.80103	72.32851	-278.12769	939.41696	37.38099	-352.47969	984.96429	57.31505	-301.03356	1332.80116	369.82666	-98.92920	1224.35792	443.35079	-55.08455	1267.98658	335.83091	-53.42442	886.16928	430.41361	-409.69807	845.40733	316.02899	-397.40138	1208.88766	791.35654	-148.22655	1254.20237	690.27646	-135.65430	1246.53132	669.18049	-71.03902	1150.17004	774.66543	-53.94869	1196.12833	670.01780	-42.96742	1100.13918	786.45618	-425.20061	1067.80923	650.09958	-424.28325	990.13602	812.06559	-420.04296	957.42447	679.84960	-398.00469	1169.04107	942.10163	-129.99185	977.45508	981.01100	-195.68195	1165.89094	924.93101	-367.76592	973.60061	985.32007	-294.68987	1058.63472	1447.72617	-294.87608	1108.82829	1412.98943	-126.84319	1122.48103	1373.07901	-448.51865	1155.92319	1340.81313	-265.72057	1158.13749	1334.26719	-304.37740	1082.31520	1184.06214	-22.79856	1017.13789	1097.96422	-45.35851	1047.75487	1100.99994	8.04769	1106.29885	969.67526	29.45574	1143.49983	870.65170	19.71911	1110.28503	868.11818	50.43264	1143.13297	1140.91388	-519.13068	1101.77126	1035.40561	-479.38720	1129.52304	1039.72417	-530.19923	1219.29688	926.98612	-539.41056	1278.30309	837.96553	-513.67646	1246.34065	820.57362	-537.57859	1090.14224	862.44895	-158.53607	1071.80722	863.84863	-348.31638	1098.94578	859.53267	-163.30872	1092.83218	866.36891	-320.39252	
121	1.20000000	1249.01239	496.42857	-84.52311	1299.50840	473.85989	-89.78443	1393.19714	116.88844	-117.65673	1364.37625	62.99688	-171.69969	1546.87883	124.62622	-64.17760	1560.83116	168.38120	-116.89101	978.17547	482.38807	-397.44389	973.68557	392.23572	-404.27949	825.98329	102.70627	-334.14856	760.23977	73.90828	-278.90649	939.48587	37.15351	-352.69908	984.41319	56.71137	-301.02076	1345.88806	369.19950	-100.41858	1236.11934	441.00530	-56.66720	1281.29756	334.05248	-55.40218	891.72578	430.63648	-410.60946	849.32983	316.78422	-398.43318	1220.47269	789.37765	-149.67112	1265.68395	688.18873	-137.45858	1258.50977	667.14053	-72.78845	1162.48114	772.86883	-54.67857	1208.37725	668.02377	-44.14682	1109.49779	784.25397	-425.97664	1075.77615	648.19603	-424.95267	999.77894	811.02149	-420.82136	965.63469	678.99651	-398.56443	1180.90537	939.68534	-131.02599	989.11514	979.15939	-195.71778	1176.39884	922.73974	-368.95339	984.74006	983.55118	-294.74509	1069.49467	1446.05975	-291.38546	1119.13470	1409.68134	-123.58203	1133.42780	1372.94037	-445.67044	1166.75811	1338.86542	-263.02100	1169.03803	1332.71682	-301.78867	1091.46890	1180.05198	-21.26559	1026.66367	1094.15373	-45.06486	1056.55811	1096.89266	8.69422	1114.55949	965.29173	30.06463	1151.59836	866.21169	20.15703	1118.11268	863.64578	50.56868	1154.06006	1141.27715	-518.05025	1112.65824	1035.51799	-479.04711	1140.48568	1040.13025	-529.79394	1230.40351	927.55335	-539.49759	1289.50411	838.45277	-514.18711	1257.61759	821.17324	-538.22097	1101.65580	860.26286	-159.30105	1082.30153	861.88207	-348.97848	1110.39789	857.30383	-164.05518	1103.45629	864.27314	-321.20393	
